<?xml version="1.0" encoding="utf-8"?>
<!-- Generator: Adobe Illustrator 27.5.0, SVG Export Plug-In . SVG Version: 6.00 Build 0)  -->
<svg version="1.1" id="Layer_1" xmlns="http://www.w3.org/2000/svg" xmlns:xlink="http://www.w3.org/1999/xlink" x="0px" y="0px"
	 viewBox="0 0 560.7 390.8" style="enable-background:new 0 0 560.7 390.8;" xml:space="preserve">
<g>
	<path d="M281.4,388.6c-36.9-63.6-73.5-126.6-110.6-190.4c-1.5,2.5-2.6,4.2-3.6,5.9c-16.6,29.5-33.2,59-49.7,88.5
		c-1.2,2.1-2.3,3.7-5.3,3.7c-35.5-0.1-71,0-106.5,0c-0.8,0-1.6-0.1-3.4-0.3c55.2-98.2,110.2-196,165.6-294.5
		c38.5,66.3,76.5,131.8,115.1,198.3c36.7-65.3,72.9-129.7,109.4-194.6c1,1.3,1.7,2.1,2.1,3c17.3,30.1,34.5,60.2,51.9,90.2
		c1.6,2.8,1.6,4.8-0.1,7.5C392.1,199,337.9,292,283.8,385C283.2,386.1,282.4,387.1,281.4,388.6z"/>
</g>
<g>
	<path d="M559.8,296.1c-38.1,0-75.2,0-113.2,0c19.1-32.7,37.8-64.8,57-97.8C522.4,231.2,540.9,263.3,559.8,296.1z"/>
</g>
</svg>
